<?xml version="1.0" encoding="utf-8"?>
<!-- Generator: Adobe Illustrator 27.0.0, SVG Export Plug-In . SVG Version: 6.00 Build 0)  -->
<svg version="1.1" id="layer" xmlns="http://www.w3.org/2000/svg" xmlns:xlink="http://www.w3.org/1999/xlink" x="0px" y="0px"
	 viewBox="0 0 1000 1000" style="enable-background:new 0 0 1000 1000;" xml:space="preserve">
<style type="text/css">
	.st0{fill:#FFFFFF;}
	.st1{fill:#986DFF;}
</style>
<path class="st0" d="M408.9,363.4H93.1c-24.7,0-44.7-20-44.7-44.7l0,0c0-24.7,20-44.7,44.7-44.7h315.8c24.7,0,44.7,20,44.7,44.7l0,0
	C453.5,343.4,433.6,363.4,408.9,363.4z"/>
<path class="st0" d="M251,722.5L251,722.5c-24.2,0-43.9-19.6-43.9-43.9V455.3c0-24.2,19.6-43.9,43.9-43.9l0,0
	c24.2,0,43.9,19.6,43.9,43.9v223.3C294.9,702.9,275.2,722.5,251,722.5z"/>
<path class="st1" d="M907.4,722.3L907.4,722.3c-25.2,2.2-47.4-16.4-49.6-41.6l-8.5-97.1c-2.2-25.2,16.4-47.4,41.6-49.6l0,0
	c25.2-2.2,47.4,16.4,49.6,41.6l8.5,97.1C951.2,697.9,932.6,720.1,907.4,722.3z"/>
<path class="st1" d="M498.2,722.3L498.2,722.3c-25.2-2.2-43.8-24.4-41.6-49.6l8.5-97.1c2.2-25.2,24.4-43.8,49.6-41.6l0,0
	c25.2,2.2,43.8,24.4,41.6,49.6l-8.5,97.1C545.6,705.9,523.4,724.5,498.2,722.3z"/>
<path class="st1" d="M682.6,718L682.6,718c22.8,10.2,49.6-0.1,59.8-22.9l160.9-361.3c10.2-22.8-0.1-49.6-22.9-59.8l0,0
	c-22.8-10.2-49.6,0.1-59.8,22.9L659.7,658.2C649.5,681.1,659.8,707.8,682.6,718z"/>
<path class="st1" d="M719.5,718L719.5,718c22.8-10.2,33.1-36.9,22.9-59.8L581.6,296.9c-10.2-22.8-36.9-33.1-59.8-22.9l0,0
	c-22.8,10.2-33.1,36.9-22.9,59.8l160.9,361.3C669.9,717.9,696.7,728.2,719.5,718z"/>
</svg>
